<svg t="1732006861968" class="icon" viewBox="0 0 1024 1024" version="1.1" xmlns="http://www.w3.org/2000/svg" p-id="2389" width="16" height="16"><path d="M506.76224 179.92192c-2.10944 1.89952-4.3008 3.70688-6.30272 5.7088C406.12864 279.8848 311.82336 374.15424 217.4976 468.41344c-11.0336 11.0336-22.12864 22.01088-33.21856 32.98816-6.97856 6.91712-6.6048 13.7984 1.26976 21.6576 37.84192 37.8112 75.68896 75.61216 113.536 113.41824l201.86624 201.68192c8.24832 8.22784 14.35648 8.2176 22.65088-0.07168 40.85248-40.82176 81.70496-81.6384 122.53696-122.48064 19.46112-19.46112 45.40928-22.49216 66.46784-7.66976 23.99744 16.89088 28.07296 52.63872 7.50592 73.52832-40.18176 40.82176-80.88576 81.12128-121.39008 121.61024-15.73376 15.72864-31.4112 31.51872-47.28832 47.10912-22.87616 22.4512-56.11008 22.65088-78.74048 0.128-56.15616-55.86944-112.08192-111.96928-168.13568-167.94112a312823.92576 312823.92576 0 0 0-229.73952-229.23776c-13.07648-13.0304-19.55328-28.31872-17.87392-46.89408 1.14176-12.60544 6.1696-23.51616 14.976-32.39424a35948.48256 35948.48256 0 0 1 109.0304-109.21984c95.98976-95.89248 192.0512-191.72864 287.97952-287.69792 9.62048-9.62048 20.17792-16.96256 33.87904-19.18464 18.37056-2.98496 34.67264 1.65376 47.82592 14.56128 31.5392 30.94016 62.60736 62.37184 93.8496 93.61408 0.20992 0.21504 0.32256 0.5376 0.48128 0.81408-2.80064 1.21856-4.37248-1.0496-6.20544-2.30912-12.38528-8.56064-25.41056-15.70304-40.22272-19.21536-19.32288-4.58752-37.4784-1.23392-54.79424 7.8848-10.368 5.45792-19.584 12.55424-28.288 20.35712-2.70336 2.41152-5.632 4.53632-8.69376 6.47168z" fill="#29CCFE" p-id="2390"></path><path d="M789.3248 336.04608c15.68256 0.0512 27.3408 4.98688 36.93568 14.5152 41.51296 41.2416 83.09248 82.432 124.35968 123.9296 22.08256 22.20544 22.34368 55.4496 0.32256 77.76768-40.99584 41.5488-82.35008 82.7392-123.84256 123.8016-13.9264 13.77792-31.08352 17.85856-49.792 11.96032-17.95584-5.66784-29.27104-18.35008-33.20832-36.77184-3.95776-18.5088 2.24768-34.05824 15.47264-47.22176 26.17344-26.03008 52.2496-52.16768 78.35648-78.26944 9.0112-9.0112 8.97536-14.94016-0.09728-24.00256-26.7776-26.76224-53.59616-53.49376-80.32768-80.31232-18.87744-18.92864-21.15072-45.37344-5.4272-66.14016 9.76384-12.8768 23.17312-19.01568 37.248-19.25632z" fill="#F9806E" p-id="2391"></path><path d="M514.2528 406.12352c58.52672-0.12288 107.77088 46.89408 107.65824 107.7504-0.10752 60.75904-47.7696 107.72992-107.5712 107.9296-60.9792 0.20992-108.416-48.08192-108.3648-108.06784 0.05632-61.54752 50.25792-108.1344 108.27776-107.61216z" fill="#F98D7D" p-id="2392"></path><path d="M506.76224 179.92192c18.60096-18.40128 39.03488-33.90464 65.8432-37.56544 15.41632-2.10432 30.33088 1.24416 44.41088 7.9616 8.38656 4.00384 16.41472 8.6016 23.86944 14.18752 1.21344 0.90112 2.3552 2.16576 4.08064 2.23744 24.51968 24.51456 49.17248 48.896 73.51296 73.58976 19.6608 19.93728 19.5072 50.2528 0.06656 69.62688-19.46624 19.38944-50.19136 19.3536-70.08256-0.43008A40343.72608 40343.72608 0 0 1 523.71968 184.832c-4.92544-4.95616-10.15808-7.2448-16.95744-4.91008z" fill="#4284EA" p-id="2393"></path></svg>